<svg id="Capa_1" enable-background="new 0 0 512 512" height="512" viewBox="0 0 512 512" width="512" xmlns="http://www.w3.org/2000/svg"><g><path d="m495.693 56.219c-10.162-10.162-26.03-11.581-38.01-3.642-9.31 6.169-19.287 10.919-29.625 14.258 2.645-7.65 4.8-15.526 6.414-23.596 3.698-18.505-10.586-35.739-29.456-35.739-14.371 0-26.595 10.217-29.453 24.302-11.297 55.668-60.617 97.698-119.569 97.698s-108.272-42.03-119.569-97.698c-2.858-14.085-15.081-24.302-29.453-24.302-18.87 0-33.154 17.234-29.455 35.738 1.612 8.066 3.766 15.938 6.409 23.584-10.331-3.339-20.304-8.08-29.609-14.245-11.98-7.938-27.848-6.52-38.01 3.642-13.343 13.344-11.257 35.63 4.443 46.099 31.119 20.75 67.268 30.878 103.305 30.41 33.184 34.946 80.058 56.772 131.939 56.772 51.877 0 98.749-21.824 131.933-56.765 36.043.473 72.199-9.663 103.323-30.417 15.7-10.469 17.786-32.755 4.443-46.099z" fill="#e8b5b1"/><g><path d="m34.951 164.128c-12.449 2.801-22.206 12.558-25.007 25.007-7.261 32.278 1.657 67.457 26.782 92.582 30.111 30.111 74.663 36.945 111.355 20.547 16.397-36.692 9.564-81.244-20.547-111.355-25.126-25.125-60.305-34.043-92.583-26.781z" fill="#ff6f4d"/><path d="m502.056 189.134c-2.801-12.449-12.558-22.206-25.007-25.007-32.278-7.261-67.457 1.657-92.582 26.782-30.111 30.111-36.945 74.663-20.547 111.355 36.692 16.397 81.244 9.564 111.355-20.547 25.124-25.125 34.043-60.305 26.781-92.583z" fill="#ff8f71"/></g><g fill="#ffdbe0"><path d="m49.534 203.723c-4.86 37.708 27.182 69.977 65.165 65.19 4.758-38.097-27.387-69.993-65.165-65.19z"/><path d="m462.467 203.723c-37.795-4.804-69.922 27.113-65.166 65.19 38.142 4.796 70.006-27.622 65.166-65.19z"/></g><g><path d="m311 124.257c-17.142-6.31-35.668-9.757-55-9.757-87.948 0-159.243 71.296-159.243 159.243 0 36.107 17.874 70.87 35.703 102.269 0 0 12.54 22.082 29.66 48.107 12.87 19.564 28.328 41.355 42.999 57.672 12.982 14.439 31.464 22.709 50.881 22.709s37.899-8.27 50.881-22.709c1.367-1.52 2.741-3.092 4.119-4.701 13.41-15.661 27.209-35.232 38.88-52.972 17.122-26.025 29.66-48.106 29.66-48.106 17.829-31.398 35.703-66.161 35.703-102.269 0-68.615-43.398-127.093-104.243-149.486z" fill="#ff8f71"/><path d="m206.757 273.743c0-68.615 43.398-127.093 104.243-149.486-17.142-6.31-35.668-9.757-55-9.757-87.948 0-159.243 71.296-159.243 159.243 0 36.107 17.874 70.87 35.703 102.269 0 0 12.539 22.081 29.66 48.107 12.87 19.563 28.329 41.356 42.999 57.672 12.982 14.439 31.464 22.709 50.881 22.709s37.899-8.27 50.881-22.709c1.367-1.52 2.741-3.092 4.119-4.701-33.083-38.637-68.541-101.078-68.541-101.078-17.828-31.399-35.702-66.161-35.702-102.269z" fill="#ff6f4d"/><path d="m256 504.5c19.417 0 37.899-8.27 50.881-22.709 1.367-1.52 2.741-3.092 4.119-4.701 13.41-15.661 27.209-35.232 38.88-52.972-22.668-26.449-56.315-43.212-93.88-43.212-37.566 0-71.213 16.764-93.88 43.213 12.87 19.564 28.328 41.355 42.999 57.672 12.982 14.439 31.464 22.709 50.881 22.709z" fill="#fad5cb"/><path d="m162.12 424.119c12.87 19.564 28.328 41.355 42.999 57.672 12.982 14.439 31.464 22.709 50.881 22.709s37.899-8.27 50.881-22.709c1.367-1.52 2.741-3.092 4.119-4.701-27.266-31.843-56.14-79.849-65.453-95.749-33.323 2.792-62.884 18.807-83.427 42.778z" fill="#ffb39d"/></g><g><g><ellipse cx="176.443" cy="366.596" fill="#ff8f71" rx="29.355" ry="23.377"/><g><ellipse cx="335.557" cy="366.596" fill="#ffb39d" rx="29.355" ry="23.377"/></g></g></g><g><g><path d="m402.199 222.414c-1.417 1.914-1.84 4.389-1.14 6.665 4.413 14.348 6.597 30.368 6.597 39.796.18 5.281 5.625 8.72 10.461 6.638 33.54-6.926 56.193-38.551 51.788-72.747-.437-3.387-3.105-6.052-6.492-6.482-23.618-3.002-47.07 7.01-61.214 26.13zm52.663-11.675c.195 0 .391.001.586.004.212 21.561-13.289 40.848-33.372 48.105-.912-10.298-2.771-20.465-5.556-30.363 9.702-11.39 23.514-17.746 38.342-17.746z"/><path d="m48.587 196.283c-3.387.431-6.056 3.096-6.492 6.482-4.476 34.732 18.99 66.824 53.423 73.06 4.497.82 8.683-2.564 8.832-7.134.442-13.503 2.66-26.831 6.592-39.616.7-2.276.277-4.75-1.14-6.665-14.145-19.117-37.598-29.129-61.215-26.127zm41.338 62.558c-20.08-7.264-33.582-26.549-33.373-48.098.195-.003.392-.004.586-.004 14.827 0 28.641 6.355 38.344 17.743-2.784 9.895-4.644 20.061-5.557 30.359z"/><path d="m509.374 187.488c-3.423-15.214-15.466-27.256-30.68-30.678-4.419-.993-8.945-1.715-13.455-2.144-4.12-.384-7.784 2.635-8.177 6.757-.392 4.124 2.634 7.784 6.757 8.177 3.883.368 7.78.989 11.584 1.845 9.589 2.156 17.179 9.746 19.336 19.336 1.501 6.667 2.262 13.521 2.262 20.37 0 49.704-39.063 89.83-87.842 92.168-3.192.152-5.938 2.312-6.838 5.378-6.416 21.85-17.875 43.485-29.302 63.61-17.575 30.948-48.058 78.171-71.716 104.469-9.865 10.973-23.347 17.932-37.804 19.737v-29.689c19.868-3.555 35-20.949 35-41.824 0-4.143-3.357-7.5-7.5-7.5s-7.5 3.357-7.5 7.5c0 15.163-12.337 27.5-27.5 27.5s-27.5-12.337-27.5-27.5c0-4.143-3.357-7.5-7.5-7.5s-7.5 3.357-7.5 7.5c0 20.875 15.132 38.27 35 41.824v29.689c-14.457-1.806-27.939-8.765-37.804-19.737-33.24-36.97-71.335-103.798-71.715-104.468-11.427-20.124-22.885-41.759-29.303-63.611-.9-3.066-3.646-5.226-6.838-5.378-48.746-2.336-87.839-42.427-87.839-92.172 0-6.848.761-13.699 2.261-20.366 2.157-9.59 9.747-17.18 19.337-19.336 28.822-6.488 59.042 1.131 81.244 20.654 3.409 2.997 8.712 2.307 11.223-1.516 28.194-42.944 75.647-68.583 126.935-68.583 51.479 0 99.029 25.788 127.197 68.983l.001.002c.002.002.002.003.004.006 3.097 4.748 10.097 4.388 12.796-.467 11.586-9.656 25.438-16.352 40.211-19.413 4.057-.84 6.663-4.81 5.822-8.865-.84-4.057-4.813-6.658-8.865-5.822-15.362 3.184-29.868 9.744-42.399 19.123-5.163-7.086-10.832-13.685-16.923-19.782 6.068-4.831 11.844-10.019 17.249-15.516 37.381-.137 73.382-11.063 104.317-31.69 10.25-6.836 16.59-18.276 16.59-31.157 0-29.574-33.046-47.919-58.462-31.078-4.431 2.938-9.063 5.557-13.862 7.841.8-3.143 1.518-6.299 2.148-9.456 4.622-23.116-13.178-44.709-36.81-44.709-17.761 0-33.239 12.747-36.804 30.311-7.546 37.188-32.794 67.918-67.756 82.687-14.283-3.935-29.21-5.998-44.454-5.998-14.937 0-29.575 1.984-43.604 5.771-20.188-8.122-37.422-21.609-49.858-39.043-2.403-3.372-7.088-4.158-10.461-1.75-3.372 2.405-4.155 7.089-1.75 10.461 10.976 15.388 25.242 28.048 41.796 37.245-15.382 6.372-29.742 15.033-42.604 25.724-7.493-5.662-13.791-11.28-20.025-17.845-1.417-1.492-3.383-2.336-5.438-2.336-.033 0-.067 0-.102.001-35.465.442-69.798-9.65-99.043-29.15-6.206-4.138-9.911-11.096-9.911-18.614 0-17.712 19.764-28.843 35.176-18.636 9.71 6.435 20.29 11.525 31.444 15.131 5.874 1.897 11.414-3.745 9.396-9.587-2.081-6.021-6.583-20.999-6.583-27.018 0-12.326 10.112-22.354 22.541-22.354 10.656 0 19.952 7.693 22.103 18.293 1.468 7.231 3.547 14.349 6.179 21.155 1.494 3.863 5.839 5.782 9.7 4.29 3.863-1.494 5.784-5.837 4.29-9.7-2.328-6.021-4.168-12.322-5.468-18.728-3.565-17.563-19.044-30.31-36.804-30.31-23.549 0-41.459 21.468-36.81 44.708.63 3.151 1.346 6.305 2.146 9.445-4.798-2.283-9.426-4.898-13.85-7.83-25.375-16.809-58.46 1.503-58.46 31.141 0 12.545 6.202 24.169 16.59 31.095 30.872 20.585 66.921 31.533 104.297 31.683 5.46 5.554 11.043 10.515 17.369 15.433-6.129 6.124-11.832 12.752-17.021 19.873-25.124-18.818-57.277-25.635-87.929-18.736-15.214 3.422-27.257 15.464-30.68 30.678-1.742 7.744-2.626 15.704-2.626 23.657 0 56.022 42.64 101.5 96.833 106.771 7.01 21.547 18.081 42.384 29.104 61.797 1.588 2.796 39.27 68.902 73.605 107.091 14.395 16.01 34.973 25.194 56.458 25.194s42.063-9.184 56.457-25.193c24.403-27.136 55.467-75.15 73.606-107.092 11.022-19.414 22.096-40.255 29.104-61.797 54.136-5.265 96.833-50.689 96.833-106.767 0-7.956-.883-15.918-2.626-23.663zm-154.32-96.665c13.946-16.553 23.579-36.447 27.858-57.53 2.15-10.6 11.446-18.293 22.102-18.293 14.171 0 24.866 12.938 22.101 26.769-1.522 7.614-3.59 15.224-6.146 22.615-2.019 5.833 3.514 11.488 9.393 9.588 11.147-3.6 21.733-8.695 31.463-15.144 15.99-10.59 36.939 1.952 35.063 20.885-.662 6.689-4.233 12.654-9.8 16.365-29.304 19.54-63.552 29.618-99.063 29.157-.033-.001-.065-.001-.099-.001-2.055 0-4.021.844-5.438 2.335-6.119 6.443-12.791 12.453-19.875 17.938-12.777-10.645-27.038-19.281-42.316-25.656 13.124-7.548 24.945-17.381 34.757-29.028z"/><path d="m186.051 335.093v12c0 4.143 3.357 7.5 7.5 7.5s7.5-3.357 7.5-7.5v-12c0-4.143-3.357-7.5-7.5-7.5s-7.5 3.357-7.5 7.5z"/><path d="m310.948 335.093v12c0 4.143 3.357 7.5 7.5 7.5s7.5-3.357 7.5-7.5v-12c0-4.143-3.357-7.5-7.5-7.5s-7.5 3.357-7.5 7.5z"/></g></g></g></svg>