<?xml version="1.0" encoding="iso-8859-1"?>
<!-- Generator: Adobe Illustrator 19.0.0, SVG Export Plug-In . SVG Version: 6.00 Build 0)  -->
<svg version="1.1" id="Capa_1" xmlns="http://www.w3.org/2000/svg" xmlns:xlink="http://www.w3.org/1999/xlink" x="0px" y="0px"
	 viewBox="0 0 512 512" style="enable-background:new 0 0 512 512;" xml:space="preserve">
<ellipse transform="matrix(-0.4459 0.8951 -0.8951 -0.4459 675.7979 -215.3736)" style="fill:#EBAF4B;" cx="404.563" cy="101.491" rx="88.991" ry="72.231"/>
<path style="fill:#FF8087;" d="M388.591,65.717c11.076-22.231,28.491-38.624,47.611-47.133c2.733,0.893,5.434,1.927,8.062,3.236
	c35.707,17.79,46.884,67.871,24.967,111.862c-11.076,22.231-28.491,38.624-47.611,47.133c-2.733-0.893-5.434-1.927-8.062-3.236
	C377.852,159.79,366.674,109.707,388.591,65.717z"/>
<ellipse transform="matrix(-0.4459 -0.8951 0.8951 -0.4459 65.3087 243.3818)" style="fill:#EBAF4B;" cx="107.988" cy="101.476" rx="88.991" ry="72.231"/>
<path style="fill:#FF8087;" d="M123.975,65.717c-11.076-22.231-28.491-38.624-47.612-47.134c-2.733,0.893-5.434,1.927-8.062,3.236
	c-35.707,17.79-46.884,67.872-24.967,111.863c11.076,22.231,28.491,38.624,47.611,47.133c2.733-0.893,5.434-1.927,8.062-3.236
	C134.714,159.79,145.892,109.707,123.975,65.717z"/>
<path style="fill:#FFC850;" d="M256.002,493.126c18.562,0,37.124,0.866,55.594,2.597c9.941,0.932,20.124,1.034,30.483,0.231
	c86.986-6.74,157.139-78.35,162.123-165.455c2.536-44.319-11.32-85.32-36.052-117.546c-19.306-25.156-37.158-51.578-49.354-80.848
	C392.237,68.361,329.369,23.548,256,23.548S119.763,68.362,93.203,132.105c-12.196,29.271-30.048,55.693-49.354,80.848
	C19.119,245.179,5.263,286.181,7.799,330.499c4.984,87.105,75.135,158.716,162.123,165.455c10.359,0.803,20.542,0.701,30.483-0.231
	C218.874,493.992,237.436,493.126,256.002,493.126z"/>
<path style="fill:#EBAF4B;" d="M80.956,353.017c-7.434-46.81,2.325-91.821,24.209-128.658
	c17.083-28.755,32.535-58.702,41.869-91.078c13.055-45.284,42.396-83.768,81.637-107.615
	c-61.385,9.556-112.273,50.774-135.467,106.439c-12.196,29.271-30.048,55.693-49.354,80.848
	C19.119,245.179,5.263,286.18,7.799,330.499c4.984,87.104,75.136,158.716,162.123,165.455c6.874,0.532,13.633,0.526,20.333,0.284
	C134.218,471.223,91.277,418.012,80.956,353.017z"/>
<path style="fill:#FAEBC8;" d="M368.225,334.169c-57.954,15.603-89.862-21.143-85.838-56.781
	c4.676-41.416-41.083-45.759-49.433-11.69c-12.821,52.308-32.987,72.075-107.716,65.965c-68.557-5.605-98.086,64.105-60.93,117.502
	c28.33,26.307,65.087,43.648,105.612,46.788c10.359,0.802,20.542,0.7,30.483-0.231c18.47-1.732,37.033-2.597,55.598-2.597
	c18.562,0,37.124,0.866,55.594,2.597c9.941,0.932,20.124,1.034,30.483,0.231c47.863-3.708,90.55-27.127,120.168-61.891
	C497.009,372.233,442.647,314.133,368.225,334.169z"/>
<path style="fill:#FF96A0;" d="M255.999,352.206c26.564,0,48.098,14.356,48.098,32.065c0,17.078-20.214,26.071-34.803,32.72
	c-8.456,3.854-18.133,3.854-26.59,0c-14.589-6.649-34.803-15.642-34.803-32.72C207.903,366.562,229.436,352.206,255.999,352.206z"/>
<path style="fill:#4B3F4E;" d="M171.832,304.109L171.832,304.109c-15.431,0-28.056-12.625-28.056-28.056v-16.032
	c0-15.431,12.625-28.056,28.056-28.056l0,0c15.431,0,28.056,12.625,28.056,28.056v16.032
	C199.888,291.485,187.263,304.109,171.832,304.109z"/>
<path style="fill:#5D5360;" d="M171.832,231.965c-1.372,0-2.688,0.214-4.008,0.407v39.674c0,8.854,7.178,16.032,16.032,16.032
	c8.855,0,16.032-7.178,16.032-16.032v-12.024C199.888,244.59,187.263,231.965,171.832,231.965z"/>
<circle style="fill:#FFFFFF;" cx="171.829" cy="252.008" r="12.02"/>
<path style="fill:#4B3F4E;" d="M340.168,304.109L340.168,304.109c-15.431,0-28.056-12.625-28.056-28.056v-16.032
	c0-15.431,12.625-28.056,28.056-28.056l0,0c15.431,0,28.056,12.625,28.056,28.056v16.032
	C368.225,291.485,355.599,304.109,340.168,304.109z"/>
<path style="fill:#5D5360;" d="M340.168,231.965c-1.372,0-2.688,0.214-4.008,0.407v39.674c0,8.854,7.178,16.032,16.032,16.032
	c8.855,0,16.032-7.178,16.032-16.032v-12.024C368.225,244.59,355.599,231.965,340.168,231.965z"/>
<circle style="fill:#FFFFFF;" cx="340.167" cy="252.008" r="12.02"/>
<path style="fill:#FF8087;" d="M266.755,412.91c-14.589-7.876-34.803-18.528-34.803-38.757c0-7.298,2.652-14.091,7.171-19.878
	c-18.226,4.561-31.221,16.251-31.221,29.995c0,17.078,20.214,26.07,34.802,32.72c8.456,3.854,18.133,3.854,26.59,0
	c1.172-0.534,2.389-1.091,3.621-1.658C270.818,414.763,268.748,413.987,266.755,412.91z"/>
<path style="fill:#F5DCB4;" d="M80.956,353.017c-0.616-3.882-0.938-7.728-1.322-11.582c-33.813,20.468-42.654,68.459-15.326,107.731
	c28.33,26.307,65.087,43.648,105.612,46.788c6.874,0.532,13.634,0.526,20.333,0.284l0,0
	C134.218,471.223,91.277,418.012,80.956,353.017z"/>
<path d="M239.045,423.564l0.548,0.25c5.213,2.376,10.809,3.564,16.405,3.564c5.596,0,11.193-1.188,16.405-3.564l0.548-0.25
	c15.389-7.01,38.644-17.605,38.644-39.294c0-22.186-24.421-39.565-55.598-39.565S200.4,362.085,200.4,384.271
	C200.402,405.96,223.657,416.554,239.045,423.564z M255.999,359.706c22.006,0,40.598,11.25,40.598,24.565
	c0,12.04-17.26,19.903-29.863,25.644l-0.551,0.251c-6.471,2.95-13.895,2.95-20.368,0l-0.551-0.251
	c-12.603-5.741-29.863-13.604-29.863-25.644C215.401,370.955,233.993,359.706,255.999,359.706z"/>
<path d="M324.587,434.351c-3.332-2.462-8.027-1.758-10.489,1.574c-6.012,8.134-16.114,12.99-27.022,12.99
	c-6.258,0-12.336-1.62-17.578-4.684c-8.326-4.866-18.67-4.866-26.996,0c-5.242,3.064-11.32,4.684-17.578,4.684
	c-10.908,0-21.009-4.855-27.021-12.988c-2.462-3.331-7.159-4.035-10.489-1.573c-3.331,2.462-4.035,7.159-1.573,10.489
	c8.828,11.942,23.438,19.072,39.083,19.072c8.916,0,17.611-2.329,25.147-6.734c3.657-2.138,8.2-2.137,11.856,0
	c7.536,4.406,16.232,6.734,25.148,6.734c15.646,0,30.257-7.131,39.085-19.075C328.623,441.508,327.918,436.812,324.587,434.351z"/>
<path d="M151.361,392.815c-1.833,0.105-45.296,2.751-80.167,17.623c-3.81,1.625-5.582,6.031-3.957,9.841
	c1.216,2.85,3.988,4.56,6.902,4.56c0.981,0,1.979-0.194,2.939-0.603c32.37-13.805,74.593-16.413,75.143-16.445
	c4.135-0.238,7.295-3.783,7.058-7.918C159.042,395.736,155.489,392.577,151.361,392.815z"/>
<path d="M352.722,399.87c-0.239,4.134,2.919,7.68,7.054,7.92c0.424,0.025,42.727,2.619,75.145,16.446
	c0.96,0.409,1.958,0.603,2.939,0.603c2.915,0,5.687-1.709,6.902-4.56c1.625-3.811-0.146-8.216-3.957-9.841
	c-34.872-14.872-78.334-17.518-80.167-17.623C356.515,392.581,352.961,395.736,352.722,399.87z"/>
<path d="M507.145,377.253c-1.263-0.477-2.552-0.935-3.851-1.385c4.665-14.5,7.516-29.588,8.395-44.941
	c2.526-44.146-10.824-87.665-37.59-122.54c-7.929-10.332-16.877-22.467-25.472-35.979c14.679-11.63,26.275-27.998,32.972-46.757
	c8.244-23.091,8.493-47.542,0.7-68.847c-7.972-21.796-23.357-37.725-43.322-44.853c-30.549-10.907-65.233,1.308-88.164,30.437
	c-3.402-2.057-6.862-4.014-10.388-5.841c-25.883-13.412-55.078-20.5-84.426-20.5c-34.263,0-66.861,9.414-94.868,26.27
	c-22.932-29.079-57.587-41.262-88.109-30.366C53.057,19.08,37.672,35.009,29.7,56.804c-7.793,21.306-7.544,45.757,0.7,68.847
	c6.698,18.759,18.293,35.127,32.972,46.757c-8.595,13.511-17.543,25.646-25.472,35.978C11.135,243.263-2.215,286.782,0.311,330.927
	c0.878,15.353,3.73,30.441,8.395,44.941c-1.299,0.45-2.588,0.908-3.851,1.385c-3.875,1.462-5.832,5.789-4.371,9.665
	c1.133,3.004,3.987,4.855,7.019,4.855c0.879,0,1.774-0.156,2.646-0.484c1.222-0.461,2.472-0.904,3.735-1.339
	c8.965,21.592,22.093,41.543,38.868,58.664c31.306,31.951,72.711,51.42,116.59,54.819c10.603,0.821,21.289,0.741,31.763-0.241
	c36.427-3.415,73.365-3.415,109.792,0c5.706,0.535,11.474,0.802,17.257,0.802c4.833,0,9.679-0.187,14.505-0.561
	c43.879-3.399,85.285-22.868,116.59-54.819c16.775-17.121,29.903-37.072,38.868-58.664c1.263,0.435,2.513,0.878,3.735,1.339
	c0.872,0.329,1.766,0.484,2.646,0.484c3.031,0,5.885-1.851,7.019-4.855C512.977,383.042,511.02,378.715,507.145,377.253z
	 M411.928,23.188c-1.273,0.78-2.541,1.598-3.797,2.496c-12.231,8.746-22.264,22.259-28.463,38.238
	c-5.178-4.712-10.621-9.13-16.292-13.226C376.677,34.285,394.284,24.537,411.928,23.188z M148.548,50.605
	c-5.662,4.077-11.09,8.484-16.263,13.193c-6.202-15.925-16.216-29.39-28.417-38.114c-1.255-0.898-2.523-1.716-3.795-2.495
	C117.684,24.537,135.257,34.25,148.548,50.605z M44.527,120.608c-7.069-19.799-7.332-40.628-0.74-58.652
	c4.575-12.509,12.094-22.56,21.719-29.339c0.532-0.237,1.079-0.458,1.628-0.654c18.226-6.509,42.045,11.585,52.014,39.505
	c0.483,1.354,0.927,2.722,1.338,4.095c-14.155,15.461-25.812,33.513-34.206,53.657c-4.4,10.561-9.566,20.673-15.072,30.241
	C59.41,149.648,50.059,136.101,44.527,120.608z M448.535,438.114c-28.764,29.357-66.776,47.243-107.035,50.362
	c-9.752,0.755-19.579,0.681-29.204-0.221c-37.355-3.502-75.236-3.502-112.591,0c-9.626,0.902-19.452,0.977-29.205,0.221
	c-40.258-3.119-78.27-21.005-107.034-50.362c-15.034-15.344-26.876-33.153-35.093-52.414c55.758-13.888,134.061-8.829,134.936-8.771
	c4.144,0.275,7.709-2.845,7.989-6.977c0.28-4.133-2.843-7.709-6.976-7.989c-3.709-0.251-83.147-5.388-141.242,9.6
	c-4.334-13.387-6.982-27.319-7.793-41.494c-2.32-40.557,9.937-80.528,34.514-112.552c16.236-21.155,36.628-49.654,50.327-82.529
	c26.31-63.143,87.493-103.942,155.874-103.942c27.343,0,53.426,6.332,77.525,18.819c22.999,11.917,43.278,29.287,58.644,50.231
	c2.451,3.34,7.144,4.061,10.484,1.61c3.34-2.45,4.061-7.144,1.611-10.483c-3.968-5.408-8.246-10.589-12.784-15.532
	c0.422-1.415,0.875-2.827,1.374-4.221c9.97-27.922,33.788-46.018,52.014-39.506c0.549,0.196,1.096,0.417,1.628,0.654
	c9.624,6.779,17.143,16.83,21.719,29.339c6.592,18.023,6.329,38.853-0.74,58.652c-5.531,15.493-14.883,29.04-26.682,38.853
	c-5.505-9.568-10.671-19.68-15.072-30.24c-1.305-3.132-2.716-6.27-4.195-9.324c-1.805-3.729-6.291-5.288-10.019-3.483
	c-3.729,1.804-5.288,6.29-3.483,10.018c1.357,2.804,2.652,5.683,3.851,8.558c13.698,32.875,34.091,61.375,50.327,82.529
	c24.577,32.024,36.834,71.996,34.514,112.552c-0.811,14.175-3.459,28.107-7.793,41.494c-58.095-14.988-137.533-9.851-141.242-9.6
	c-4.132,0.28-7.255,3.856-6.976,7.989c0.279,4.132,3.861,7.25,7.989,6.977c0.875-0.059,79.177-5.117,134.936,8.771
	C475.41,404.962,463.568,422.771,448.535,438.114z"/>
<path d="M207.388,276.054v-16.033c0-5.332-1.154-10.462-3.429-15.249c-1.778-3.741-6.253-5.333-9.993-3.554
	c-3.741,1.778-5.332,6.252-3.554,9.993c1.311,2.759,1.976,5.723,1.976,8.809v16.033c0,11.334-9.222,20.556-20.557,20.556
	c-11.334,0-20.556-9.222-20.556-20.556V260.02c0-11.334,9.222-20.556,20.556-20.556c4.142,0,7.5-3.358,7.5-7.5s-3.358-7.5-7.5-7.5
	c-19.606,0-35.556,15.95-35.556,35.556v16.033c0,19.606,15.95,35.556,35.556,35.556S207.388,295.659,207.388,276.054z"/>
<path d="M375.725,276.054v-16.033c0-5.333-1.153-10.463-3.429-15.249c-1.778-3.741-6.253-5.333-9.993-3.554
	c-3.741,1.778-5.332,6.252-3.554,9.993c1.311,2.758,1.976,5.722,1.976,8.809v16.033c0,11.334-9.222,20.556-20.556,20.556
	c-11.335,0-20.557-9.222-20.557-20.556V260.02c0-11.334,9.222-20.556,20.557-20.556c4.142,0,7.5-3.358,7.5-7.5s-3.358-7.5-7.5-7.5
	c-19.606,0-35.557,15.95-35.557,35.556v16.033c0,19.606,15.951,35.556,35.557,35.556S375.725,295.659,375.725,276.054z"/>
<g>
</g>
<g>
</g>
<g>
</g>
<g>
</g>
<g>
</g>
<g>
</g>
<g>
</g>
<g>
</g>
<g>
</g>
<g>
</g>
<g>
</g>
<g>
</g>
<g>
</g>
<g>
</g>
<g>
</g>
</svg>
