<?xml version="1.0" encoding="iso-8859-1"?>
<!-- Generator: Adobe Illustrator 19.0.0, SVG Export Plug-In . SVG Version: 6.00 Build 0)  -->
<svg version="1.1" id="Capa_1" xmlns="http://www.w3.org/2000/svg" xmlns:xlink="http://www.w3.org/1999/xlink" x="0px" y="0px"
	 viewBox="0 0 512 512" style="enable-background:new 0 0 512 512;" xml:space="preserve">
<circle style="fill:#965A50;" cx="71.63" cy="223.94" r="64.13"/>
<circle style="fill:#EBC9A0;" cx="71.63" cy="223.94" r="40.08"/>
<circle style="fill:#965A50;" cx="440.37" cy="223.94" r="64.13"/>
<circle style="fill:#EBC9A0;" cx="440.37" cy="223.94" r="40.08"/>
<path style="fill:#AF6E5A;" d="M437.122,261.872c-8.121-14.013-12.784-29.757-12.784-45.953l0,0
	c0-70.253-43.065-130.394-104.21-155.621v-28.75L280.047,47.58l-8.016-32.065c-21.143,7.048-39.179,21.839-52.764,36.206
	C143.985,68.498,87.661,135.58,87.661,215.919c0,16.196-4.662,31.94-12.783,45.953c-12.347,21.305-19.281,45.121-19.281,70.281
	c0,90.757,89.723,164.331,200.403,164.331s200.403-73.573,200.403-164.331C456.403,306.993,449.469,283.177,437.122,261.872z"/>
<path style="fill:#965A50;" d="M143.774,360.878c0-29.354,6.934-57.139,19.281-81.995c8.122-16.348,12.784-34.716,12.784-53.612
	c0-81.573,42.681-151.387,103.373-181.038l-7.179-28.717c-21.143,7.048-39.178,21.839-52.764,36.206
	C143.985,68.498,87.661,135.58,87.661,215.919c0,16.196-4.662,31.94-12.784,45.953c-12.347,21.305-19.281,45.121-19.281,70.281
	c0,73.254,58.467,135.287,139.214,156.5C163.086,454.736,143.774,409.972,143.774,360.878z"/>
<path style="fill:#FAEBC8;" d="M256,464.419c66.408,0,120.242-43.068,120.242-96.194c0-11.021-2.344-21.593-6.634-31.438
	c-6.222-14.276-4.104-30.661,5.892-42.603c12.749-15.232,19.325-35.797,15.854-57.888c-4.766-30.343-29.298-54.831-59.647-59.555
	c-23.192-3.61-44.689,3.852-60.089,17.899c-4.378,3.993-9.999,5.989-15.615,5.989c-5.621,0-11.242-1.996-15.619-5.989
	c-15.401-14.047-36.897-21.509-60.089-17.899c-30.35,4.724-54.881,29.212-59.647,59.555c-3.47,22.091,3.105,42.656,15.854,57.888
	c9.996,11.942,12.114,28.327,5.892,42.603c-4.291,9.845-6.634,20.416-6.634,31.438C135.758,421.352,189.592,464.419,256,464.419z"/>
<path style="fill:#F5DCB4;" d="M135.758,368.225c0,17.98,6.278,34.746,17.011,49.142c-5.764-17.872-8.995-36.805-8.995-56.49
	c0-29.354,6.934-57.139,19.281-81.995c8.122-16.348,12.784-34.716,12.784-53.612c0-16.8,1.902-33.058,5.308-48.613
	c-0.287,0.041-0.566,0.039-0.853,0.084c-30.35,4.723-54.88,29.212-59.647,59.555c-3.47,22.091,3.106,42.656,15.854,57.888
	c9.997,11.942,12.115,28.327,5.893,42.603C138.102,346.633,135.758,357.204,135.758,368.225z"/>
<path style="fill:#4B3F4E;" d="M175.839,360.21c0,39.845,35.889,72.145,80.161,72.145s80.161-32.3,80.161-72.145H175.839z"/>
<path style="fill:#E6646E;" d="M209.811,419.115c13.062,8.312,28.974,13.24,46.189,13.24s33.126-4.927,46.189-13.24
	c-5.791-20.061-24.328-34.857-46.189-34.857S215.602,399.054,209.811,419.115z"/>
<path style="fill:#4B3F4E;" d="M183.855,272.032L183.855,272.032c-13.282,0-24.048-10.767-24.048-24.048v-8.016
	c0-13.282,10.767-24.048,24.048-24.048l0,0c13.282,0,24.048,10.767,24.048,24.048v8.016
	C207.903,261.266,197.136,272.032,183.855,272.032z"/>
<path style="fill:#5D5360;" d="M183.855,215.919v28.056c0,6.641,5.383,12.024,12.024,12.024s12.024-5.383,12.024-12.024v-4.008
	C207.903,226.686,197.136,215.919,183.855,215.919z"/>
<circle style="fill:#FFFFFF;" cx="183.85" cy="231.95" r="8.02"/>
<path style="fill:#4B3F4E;" d="M328.145,272.032L328.145,272.032c-13.282,0-24.048-10.767-24.048-24.048v-8.016
	c0-13.282,10.767-24.048,24.048-24.048l0,0c13.282,0,24.048,10.767,24.048,24.048v8.016
	C352.194,261.266,341.427,272.032,328.145,272.032z"/>
<path style="fill:#5D5360;" d="M328.145,215.919v28.056c0,6.641,5.383,12.024,12.024,12.024s12.024-5.383,12.024-12.024v-4.008
	C352.194,226.686,341.427,215.919,328.145,215.919z"/>
<circle style="fill:#FFFFFF;" cx="328.14" cy="231.95" r="8.02"/>
<path d="M236.613,326.837c1.077,0.539,2.222,0.793,3.349,0.793c2.751,0,5.4-1.52,6.714-4.147c1.853-3.705,0.351-8.21-3.354-10.062
	l-16.032-8.016c-3.707-1.853-8.212-0.351-10.063,3.354c-1.853,3.705-0.351,8.21,3.354,10.062L236.613,326.837z"/>
<path d="M272.038,327.63c1.127,0,2.271-0.255,3.349-0.793l16.032-8.016c3.704-1.852,5.206-6.357,3.354-10.062
	c-1.851-3.705-6.355-5.206-10.063-3.354l-16.032,8.016c-3.704,1.852-5.206,6.357-3.354,10.062
	C266.638,326.111,269.287,327.63,272.038,327.63z"/>
<path d="M512,223.936c0-39.496-32.133-71.629-71.629-71.629c-6.606,0-13.103,0.905-19.386,2.669
	c-4.928-13.323-11.495-26.067-19.626-37.981c-18.503-27.106-43.918-48.334-73.729-61.639V31.548c0-2.489-1.234-4.815-3.295-6.21
	c-2.061-1.394-4.679-1.678-6.99-0.753l-32.103,12.841l-5.933-23.729c-0.507-2.026-1.836-3.75-3.667-4.755
	c-1.833-1.005-4.001-1.202-5.981-0.541c-18.575,6.192-36.821,18.472-54.261,36.515c-37.524,8.89-71.54,30.254-95.986,60.339
	c-12.161,14.965-21.688,31.815-28.314,49.74c-6.308-1.78-12.832-2.688-19.47-2.688C32.133,152.307,0,184.44,0,223.936
	c0,32.796,22.447,61.148,53.464,69.271c-3.561,12.662-5.367,25.674-5.367,38.946c0,46.183,21.82,89.51,61.441,121.999
	c39.188,32.135,91.203,49.832,146.462,49.832s107.273-17.697,146.462-49.832c39.621-32.489,61.441-75.815,61.441-121.999
	c0-13.271-1.806-26.28-5.366-38.94C489.554,285.089,512,256.732,512,223.936z M15,223.936c0-31.225,25.403-56.629,56.629-56.629
	c5.068,0,10.05,0.665,14.87,1.973c-4.167,15.111-6.338,30.803-6.338,46.639c0,14.313-4.07,28.903-11.772,42.192
	c-3.949,6.813-7.31,13.775-10.112,20.859C33.234,272.913,15,250.225,15,223.936z M256,488.984
	c-106.367,0-192.903-70.354-192.903-156.831c0-23.221,6.147-45.602,18.271-66.521c9.024-15.571,13.794-32.762,13.794-49.713
	c0-36.778,12.747-72.721,35.893-101.205c22.812-28.073,54.72-47.845,89.846-55.672c1.461-0.325,2.791-1.08,3.818-2.167
	c13.755-14.545,27.882-25.047,42.097-31.307l5.958,23.833c0.525,2.101,1.934,3.873,3.862,4.858c1.929,0.987,4.189,1.089,6.199,0.286
	l29.795-11.918v17.672c0,3.037,1.832,5.775,4.64,6.933c60.486,24.955,99.57,83.318,99.57,148.688
	c0,16.952,4.77,34.142,13.794,49.713c12.123,20.919,18.271,43.3,18.271,66.521C448.903,418.63,362.367,488.984,256,488.984z
	 M453.723,278.971c-2.802-7.084-6.163-14.046-10.112-20.859c-7.702-13.289-11.772-27.878-11.772-42.192
	c0-15.925-2.127-31.588-6.267-46.659c4.799-1.296,9.757-1.954,14.799-1.954c31.226,0,56.629,25.404,56.629,56.629
	C497,250.225,478.766,272.913,453.723,278.971z"/>
<path d="M183.854,223.42c4.143,0,7.5-3.358,7.5-7.5s-3.357-7.5-7.5-7.5c-17.396,0-31.548,14.152-31.548,31.548v8.016
	c0,17.396,14.152,31.548,31.548,31.548s31.549-14.152,31.549-31.548v-8.016c0-4.142-3.357-7.5-7.5-7.5s-7.5,3.358-7.5,7.5v8.016
	c0,9.125-7.424,16.548-16.549,16.548s-16.548-7.423-16.548-16.548v-8.016C167.307,230.843,174.729,223.42,183.854,223.42z"/>
<path d="M359.693,247.984v-8.016c0-4.142-3.357-7.5-7.5-7.5s-7.5,3.358-7.5,7.5v8.016c0,9.125-7.423,16.548-16.548,16.548
	s-16.549-7.423-16.549-16.548v-8.016c0-9.125,7.424-16.548,16.549-16.548c4.143,0,7.5-3.358,7.5-7.5s-3.357-7.5-7.5-7.5
	c-17.396,0-31.549,14.152-31.549,31.548v8.016c0,17.396,14.152,31.548,31.549,31.548
	C345.541,279.532,359.693,265.38,359.693,247.984z"/>
<path d="M256,439.855c48.337,0,87.661-35.729,87.661-79.645c0-4.142-3.357-7.5-7.5-7.5H175.839c-4.143,0-7.5,3.358-7.5,7.5
	C168.339,404.126,207.663,439.855,256,439.855z M256,408.823c-4.143,0-7.5,3.358-7.5,7.5v8.179
	c-10.713-0.982-20.738-4.047-29.565-8.725c6.48-14.503,20.944-24.018,37.065-24.018c16.192,0,30.594,9.496,37.067,24.018
	c-8.828,4.679-18.853,7.744-29.567,8.726v-8.179C263.5,412.181,260.143,408.823,256,408.823z M328.175,367.71
	c-2.029,15.556-10.303,29.435-22.512,39.625c-9.326-18.576-28.366-30.576-49.663-30.576c-21.206,0-40.314,12.028-49.656,30.582
	c-12.212-10.19-20.489-24.071-22.519-39.631H328.175z"/>
<path d="M398.764,235.138c-2.126-13.54-7.894-26.424-16.681-37.258c-2.608-3.216-7.331-3.711-10.55-1.101
	c-3.217,2.609-3.71,7.333-1.101,10.549c7.124,8.784,11.797,19.205,13.513,30.137c2.979,18.975-2.063,37.409-14.196,51.906
	c-11.758,14.047-14.447,33.365-7.017,50.414c3.987,9.149,6.01,18.718,6.01,28.441c0,48.906-50.576,88.694-112.742,88.694
	s-112.742-39.788-112.742-88.694c0-9.723,2.022-19.292,6.01-28.441c7.431-17.048,4.742-36.366-7.017-50.414
	c-12.135-14.498-17.177-32.934-14.196-51.91c4.267-27.158,26.222-49.079,53.392-53.309c19.713-3.067,39.351,2.775,53.883,16.03
	c11.593,10.574,29.753,10.572,41.342,0c14.534-13.256,34.175-19.098,53.888-16.029c6.318,0.984,12.459,2.943,18.251,5.823
	c3.707,1.844,8.211,0.332,10.055-3.377s0.332-8.21-3.377-10.055c-7.171-3.565-14.781-5.991-22.62-7.212
	c-24.232-3.773-48.395,3.432-66.305,19.768c-5.922,5.402-15.203,5.402-21.125,0c-17.907-16.334-42.072-23.543-66.298-19.769
	c-33.537,5.22-60.637,32.279-65.903,65.802c-3.662,23.316,2.557,45.998,17.513,63.865c8.085,9.66,9.912,22.991,4.769,34.793
	c-4.817,11.051-7.26,22.637-7.26,34.434c0,57.177,57.305,103.694,127.742,103.694s127.742-46.517,127.742-103.694
	c0-11.797-2.442-23.383-7.259-34.434c-5.144-11.803-3.316-25.135,4.768-34.793C396.205,281.132,402.425,258.452,398.764,235.138z"/>
<g>
</g>
<g>
</g>
<g>
</g>
<g>
</g>
<g>
</g>
<g>
</g>
<g>
</g>
<g>
</g>
<g>
</g>
<g>
</g>
<g>
</g>
<g>
</g>
<g>
</g>
<g>
</g>
<g>
</g>
</svg>
