<?xml version="1.0" encoding="iso-8859-1"?>
<!-- Generator: Adobe Illustrator 19.0.0, SVG Export Plug-In . SVG Version: 6.00 Build 0)  -->
<svg version="1.1" id="Capa_1" xmlns="http://www.w3.org/2000/svg" xmlns:xlink="http://www.w3.org/1999/xlink" x="0px" y="0px"
	 viewBox="0 0 512.001 512.001" style="enable-background:new 0 0 512.001 512.001;" xml:space="preserve">
<ellipse transform="matrix(-0.4095 0.9123 -0.9123 -0.4095 682.8288 -206.6403)" style="fill:#C0BCC1;" cx="408.289" cy="117.662" rx="113.318" ry="92.34"/>
<path style="fill:#AEA8AF;" d="M364.834,86.249c18.137-40.41,50.228-68.086,82.071-74.885c2.618,0.847,5.22,1.78,7.774,2.926
	c46.528,20.883,63.472,84.098,37.844,141.192c-18.984,42.297-56.006,69.304-92.838,72.007c-2.29-0.711-4.565-1.492-6.786-2.489
	C351.371,206.361,338.805,144.24,364.834,86.249z"/>
<ellipse transform="matrix(-0.4095 -0.9123 0.9123 -0.4095 38.8499 260.4769)" style="fill:#C0BCC1;" cx="103.722" cy="117.666" rx="113.318" ry="92.34"/>
<path style="fill:#AEA8AF;" d="M147.165,86.249c-18.137-40.41-50.228-68.086-82.071-74.885c-2.618,0.847-5.22,1.78-7.774,2.926
	C10.792,35.174-6.15,98.387,19.476,155.482c18.984,42.297,56.006,69.304,92.838,72.007c2.29-0.711,4.565-1.492,6.786-2.489
	C160.629,206.361,173.195,144.24,147.165,86.249z"/>
<path style="fill:#C9C6CA;" d="M456.345,334.313c0-123.303-96.175-246.604-200.366-246.604S55.612,211.01,55.612,334.313
	c0,66.902,54.892,128.554,141.912,147.867c15.567,13.825,35.997,22.29,58.454,22.29s42.887-8.466,58.454-22.29
	C401.455,462.868,456.345,401.215,456.345,334.313z"/>
<g>
	<path style="fill:#C0BCC1;" d="M119.73,338.723c0-99.461,43.269-198.885,101.108-246.327
		C131.143,115.864,55.612,225.051,55.612,334.313c0,66.056,53.574,126.916,138.688,147.036
		C147.582,449.671,119.73,395.965,119.73,338.723z"/>
	<path style="fill:#C0BCC1;" d="M284.031,475.668h-56.103l-28.051-9.405c0,6.95,2.514,13.718,7.208,18.136
		c13.304,12.521,30.313,20.071,48.894,20.071c18.582,0,35.59-7.55,48.894-20.071c4.695-4.418,7.208-11.186,7.208-18.136
		L284.031,475.668z"/>
</g>
<path style="fill:#F5DCB4;" d="M255.979,384.251c22.132,0,40.073,14.354,40.073,32.059c0,17.075-16.841,26.066-28.996,32.714
	c-7.045,3.854-15.107,3.854-22.154,0c-12.155-6.648-28.996-15.639-28.996-32.714C215.905,398.604,233.847,384.251,255.979,384.251z"
	/>
<path style="fill:#4B3F4E;" d="M171.825,352.192L171.825,352.192c-15.428,0-28.051-12.623-28.051-28.051v-16.029
	c0-15.428,12.623-28.051,28.051-28.051l0,0c15.428,0,28.051,12.623,28.051,28.051v16.029
	C199.876,339.569,187.253,352.192,171.825,352.192z"/>
<path style="fill:#5D5360;" d="M171.825,280.06c-1.372,0-2.687,0.214-4.008,0.407v39.666c0,8.853,7.176,16.029,16.029,16.029
	c8.853,0,16.029-7.176,16.029-16.029v-12.022C199.876,292.683,187.253,280.06,171.825,280.06z"/>
<circle style="fill:#FFFFFF;" cx="171.823" cy="300.1" r="12.019"/>
<path style="fill:#4B3F4E;" d="M340.133,352.192L340.133,352.192c-15.428,0-28.051-12.623-28.051-28.051v-16.029
	c0-15.428,12.623-28.051,28.051-28.051l0,0c15.428,0,28.051,12.623,28.051,28.051v16.029
	C368.184,339.569,355.561,352.192,340.133,352.192z"/>
<path style="fill:#5D5360;" d="M340.133,280.06c-1.372,0-2.687,0.214-4.008,0.407v39.666c0,8.853,7.176,16.029,16.029,16.029
	s16.029-7.176,16.029-16.029v-12.022C368.184,292.683,355.56,280.06,340.133,280.06z"/>
<circle style="fill:#FFFFFF;" cx="340.136" cy="300.1" r="12.019"/>
<path style="fill:#EBC9A0;" d="M239.95,407.875c0-8.522,2.774-16.37,7.398-22.835c-17.973,3.164-31.442,15.94-31.442,31.27
	c0,17.074,16.842,26.065,28.996,32.714c7.046,3.854,15.108,3.854,22.154,0c0.513-0.281,1.071-0.593,1.6-0.883
	C256.523,439.936,239.95,428.833,239.95,407.875z"/>
<path d="M193.971,289.315c-3.741,1.778-5.331,6.251-3.554,9.992c1.311,2.759,1.976,5.722,1.976,8.809v16.03
	c0,11.333-9.221,20.554-20.555,20.554c-11.333,0-20.554-9.221-20.554-20.554v-16.03c0-11.334,9.221-20.555,20.554-20.555
	c4.142,0,7.499-3.358,7.499-7.499c0-4.142-3.358-7.499-7.499-7.499c-19.604,0-35.552,15.949-35.552,35.553v16.03
	c0,19.604,15.948,35.552,35.552,35.552s35.553-15.948,35.553-35.552v-16.03c0-5.331-1.154-10.461-3.429-15.247
	C202.185,289.128,197.711,287.535,193.971,289.315z"/>
<path d="M375.714,324.147v-16.03c0-5.332-1.153-10.462-3.429-15.247c-1.778-3.741-6.251-5.333-9.992-3.554
	c-3.741,1.778-5.331,6.251-3.554,9.992c1.311,2.758,1.976,5.721,1.976,8.809v16.03c0,11.333-9.221,20.554-20.554,20.554
	c-11.334,0-20.555-9.221-20.555-20.554v-16.03c0-11.334,9.221-20.555,20.555-20.555c4.142,0,7.499-3.358,7.499-7.499
	c0-4.142-3.358-7.499-7.499-7.499c-19.604,0-35.553,15.949-35.553,35.553v16.03c0,19.604,15.949,35.552,35.553,35.552
	S375.714,343.751,375.714,324.147z"/>
<path d="M255.999,376.763c-26.233,0-47.576,17.747-47.576,39.56c0,21.31,19.524,31.984,32.443,39.046l0.457,0.25
	c4.665,2.551,9.669,3.827,14.677,3.827c5.006,0,10.013-1.276,14.676-3.827l0.457-0.25c12.919-7.062,32.443-17.736,32.443-39.046
	C303.576,394.509,282.233,376.763,255.999,376.763z M263.938,442.209l-0.459,0.251c-4.823,2.639-10.134,2.639-14.958,0l-0.459-0.251
	c-13.481-7.37-24.64-14.405-24.64-25.886c0-13.544,14.615-24.562,32.578-24.562s32.578,11.019,32.578,24.562
	C288.577,427.805,277.418,434.839,263.938,442.209z"/>
<path d="M506.158,400.999c-16.354-3.765-36.337-6.027-56.433-7.346c9.258-18.808,14.159-39.006,14.159-59.333
	c0-37.146-8.503-75.227-24.156-110.571c28.661-13.555,52.321-40.529,64.11-73.547c10.56-29.577,10.886-60.874,0.917-88.127
	c-10.147-27.742-29.699-48.006-55.056-57.059c-25.356-9.052-53.322-5.753-78.744,9.289c-24.974,14.778-44.544,39.204-55.104,68.781
	c-1.023,2.865-1.946,5.774-2.783,8.698C294.316,84.191,275.066,80.195,256,80.195c-19.065,0-38.315,3.996-57.067,11.589
	c-0.838-2.924-1.76-5.833-2.783-8.698c-10.56-29.576-30.129-54.004-55.104-68.781C115.622-0.739,87.658-4.036,62.302,5.016
	C36.945,14.069,17.393,34.333,7.246,62.075c-9.968,27.253-9.642,58.551,0.917,88.127c11.789,33.018,35.448,59.992,64.11,73.547
	C56.62,259.092,48.117,297.173,48.117,334.32c0,20.327,4.901,40.525,14.159,59.333c-20.096,1.319-40.079,3.582-56.433,7.346
	c-4.036,0.929-6.554,4.954-5.625,8.991c0.799,3.471,3.887,5.818,7.301,5.818c0.557,0,1.124-0.063,1.689-0.192
	c17.352-3.995,39.437-6.213,61.299-7.391c5.161,8.055,11.162,15.767,17.971,23.017c1.744,1.857,3.535,3.675,5.365,5.459
	c-18.97,5.74-38.99,12.707-57.307,20.863c-3.784,1.685-5.484,6.117-3.801,9.901c1.244,2.792,3.984,4.451,6.855,4.451
	c1.019,0,2.055-0.209,3.046-0.65c20.435-9.099,43.42-16.74,64.533-22.806c23.904,19.084,53.474,32.963,86.876,40.638
	c17.337,14.778,39.26,22.893,61.955,22.893s44.618-8.115,61.955-22.893c33.404-7.676,62.975-21.555,86.879-40.64
	c21.106,6.064,44.087,13.706,64.53,22.808c0.992,0.441,2.027,0.65,3.046,0.65c2.872,0,5.611-1.659,6.855-4.451
	c1.685-3.784-0.017-8.216-3.801-9.901c-18.317-8.156-38.337-15.121-57.307-20.863c1.832-1.785,3.623-3.604,5.366-5.46
	c6.81-7.25,12.811-14.962,17.972-23.019c21.858,1.178,43.94,3.398,61.297,7.393c0.566,0.13,1.132,0.192,1.689,0.192
	c3.416,0,6.502-2.349,7.301-5.818C512.712,405.954,510.193,401.928,506.158,400.999z M329.976,88.129
	c9.384-26.285,26.649-47.918,48.616-60.916c12.211-7.225,25.046-11.27,37.717-12.045c-5.958,2.63-11.875,6.096-17.663,10.395
	c-3.325,2.469-4.019,7.166-1.549,10.492c1.472,1.982,3.734,3.029,6.026,3.029c1.554,0,3.122-0.481,4.466-1.479
	c17.073-12.68,35.046-16.602,50.608-11.047c0.599,0.214,2.005,0.788,3.27,1.317c12.955,9.091,23.065,22.575,29.201,39.352
	c8.768,23.971,8.428,51.647-0.957,77.931c-10.466,29.315-31.283,53.176-56.391,65.034c-8.957-17.716-19.75-34.588-32.202-50.119
	c-12.137-15.139-25.365-28.337-39.312-39.427c1.205-9.247,3.448-18.53,6.7-27.639c4.303-12.051,10.104-23.145,17.242-32.973
	c2.434-3.352,1.69-8.041-1.661-10.475c-3.352-2.434-8.041-1.691-10.475,1.661c-7.978,10.984-14.449,23.347-19.232,36.744
	c-2.672,7.483-4.723,15.082-6.159,22.704c-6.984-4.72-14.111-8.926-21.342-12.59C327.772,94.734,328.807,91.401,329.976,88.129z
	 M182.024,88.128c1.168,3.272,2.204,6.605,3.098,9.949c-7.231,3.664-14.358,7.871-21.342,12.59
	c-1.438-7.621-3.489-15.22-6.159-22.704c-9.512-26.642-25.755-49.184-45.739-63.473c-5.325-3.809-10.757-6.917-16.225-9.324
	c12.683,0.77,25.53,4.815,37.751,12.046C155.374,40.21,172.64,61.844,182.024,88.128z M22.289,145.159
	c-9.385-26.284-9.725-53.962-0.957-77.931C27.5,50.362,37.684,36.826,50.737,27.733c0.987-0.407,2.257-0.887,3.066-1.175
	c32.264-11.52,72.498,18.29,89.692,66.449c3.252,9.11,5.494,18.393,6.7,27.639c-13.948,11.091-27.175,24.288-39.312,39.427
	c-12.451,15.531-23.244,32.403-32.202,50.119C53.572,198.334,32.756,174.474,22.289,145.159z M215.892,486.213
	c3.87,1.124,7.917,1.733,12.054,1.733c8.298,0,16.376-2.391,23.361-6.912c2.939-1.903,6.447-1.902,9.386,0
	c6.984,4.523,15.063,6.913,23.361,6.913c4.137,0,8.183-0.608,12.054-1.732c-12.15,7.008-25.947,10.78-40.107,10.78
	C241.84,496.992,228.042,493.221,215.892,486.213z M412.591,420.973c-3.553,3.783-7.316,7.401-11.266,10.861
	c-34.363-9.496-61.936-14.533-63.841-14.876c-4.078-0.734-7.976,1.973-8.711,6.048s1.973,7.976,6.048,8.711
	c0.411,0.074,22.498,4.109,51.674,11.719c-20.188,14.082-44.177,24.541-70.878,30.8c1.638-1.747,3.158-3.629,4.514-5.66
	c2.299-3.445,1.37-8.101-2.076-10.4c-3.444-2.299-8.101-1.371-10.4,2.076c-5.303,7.948-14.127,12.694-23.601,12.694
	c-5.399,0-10.659-1.558-15.209-4.505c-7.922-5.128-17.765-5.128-25.688,0c-4.551,2.947-9.81,4.504-15.209,4.504
	c-9.473,0-18.295-4.745-23.6-12.693c-2.3-3.445-6.956-4.373-10.401-2.075c-3.445,2.299-4.374,6.956-2.075,10.401
	c1.355,2.031,2.875,3.912,4.512,5.657c-26.7-6.259-50.687-16.717-70.874-30.797c29.17-7.608,51.26-11.647,51.67-11.721
	c4.076-0.736,6.783-4.637,6.047-8.712c-0.735-4.076-4.635-6.78-8.711-6.048c-1.906,0.344-29.478,5.38-63.841,14.876
	c-3.95-3.461-7.713-7.079-11.266-10.861c-4.067-4.33-7.807-8.839-11.227-13.492c37.817-1.178,70.725,0.277,71.289,0.303
	c4.141,0.183,7.645-3.009,7.835-7.146c0.19-4.138-3.009-7.645-7.145-7.836c-2.503-0.114-40.131-1.78-81.425-0.03
	c-10.194-18.374-15.62-38.372-15.62-58.451c0-57.63,21.676-117.721,59.469-164.865c37.834-47.194,86.462-74.263,133.415-74.263
	s95.58,27.067,133.415,74.263c37.793,47.143,59.469,107.234,59.469,164.865c0,20.079-5.426,40.077-15.62,58.451
	c-41.294-1.75-78.922-0.085-81.426,0.029c-4.138,0.191-7.336,3.7-7.146,7.836c0.191,4.138,3.679,7.332,7.836,7.146
	c0.564-0.026,33.471-1.483,71.29-0.304C420.399,412.133,416.658,416.643,412.591,420.973z"/>
<g>
</g>
<g>
</g>
<g>
</g>
<g>
</g>
<g>
</g>
<g>
</g>
<g>
</g>
<g>
</g>
<g>
</g>
<g>
</g>
<g>
</g>
<g>
</g>
<g>
</g>
<g>
</g>
<g>
</g>
</svg>
